<svg xmlns="http://www.w3.org/2000/svg" width="1200" height="380" viewBox="0 0 1200 380" fill="none" role="img" aria-label="i like computers — Serial Experiments Lain inspired banner">
  <title>i like computers</title>
  <defs>
    <linearGradient id="sky" x1="0" y1="0" x2="0" y2="1">
      <stop offset="0" stop-color="#07070d"/>
      <stop offset="0.42" stop-color="#171228"/>
      <stop offset="0.72" stop-color="#3a1d2c"/>
      <stop offset="0.9" stop-color="#6d2531"/>
      <stop offset="1" stop-color="#8a2d2f"/>
    </linearGradient>
    <radialGradient id="horizon" cx="0.5" cy="1" r="0.85">
      <stop offset="0" stop-color="#e0553f" stop-opacity="0.55"/>
      <stop offset="0.5" stop-color="#b91c1c" stop-opacity="0.18"/>
      <stop offset="1" stop-color="#b91c1c" stop-opacity="0"/>
    </radialGradient>
    <radialGradient id="wired" cx="0.5" cy="0.5" r="0.5">
      <stop offset="0" stop-color="#22d3ee" stop-opacity="0.5"/>
      <stop offset="1" stop-color="#22d3ee" stop-opacity="0"/>
    </radialGradient>
    <radialGradient id="wiredCore" cx="0.5" cy="0.5" r="0.5">
      <stop offset="0" stop-color="#a5f3fc" stop-opacity="0.6"/>
      <stop offset="1" stop-color="#22d3ee" stop-opacity="0"/>
    </radialGradient>
    <filter id="eye" x="-200%" y="-200%" width="500%" height="500%"><feGaussianBlur stdDeviation="3.2"/></filter>
    <filter id="eyeHalo" x="-300%" y="-300%" width="700%" height="700%"><feGaussianBlur stdDeviation="6"/></filter>
    <pattern id="scan" width="3" height="3" patternUnits="userSpaceOnUse">
      <rect width="3" height="1" fill="#ffffff" opacity="0.05"/>
    </pattern>
    <clipPath id="frame"><rect x="0" y="0" width="1200" height="380" rx="14"/></clipPath>
  </defs>

  <g clip-path="url(#frame)">
    <!-- dusk sky + horizon glow -->
    <rect width="1200" height="380" fill="url(#sky)"/>
    <ellipse cx="600" cy="362" rx="780" ry="230" fill="url(#horizon)"/>

    <!-- the Wired: cold glow behind the watcher -->
    <circle cx="1013" cy="200" r="178" fill="url(#wired)"/>
    <circle cx="1013" cy="182" r="104" fill="url(#wiredCore)"/>

    <!-- power lines (the literal powerline) -->
    <g stroke="#04040a" stroke-width="2.2" fill="none" opacity="0.95">
      <path d="M-20 96 Q 320 150 640 104"/>
      <path d="M-20 112 Q 320 172 640 120"/>
      <path d="M640 104 Q 762 152 882 110"/>
      <path d="M640 120 Q 762 170 882 126"/>
      <path d="M882 110 Q 1044 150 1230 94"/>
      <path d="M882 126 Q 1044 168 1230 110"/>
    </g>
    <!-- utility poles -->
    <g fill="#04040a">
      <rect x="635" y="86" width="9" height="250"/>
      <rect x="606" y="104" width="67" height="6"/>
      <rect x="612" y="126" width="55" height="6"/>
      <rect x="874" y="92" width="8" height="244"/>
      <rect x="848" y="108" width="60" height="5"/>
    </g>
    <!-- ground -->
    <rect x="0" y="330" width="1200" height="50" fill="#04040a" opacity="0.9"/>

    <!-- character: blacked-out anime bunny-girl silhouette (left-facing profile) -->
    <g>
      <g fill="#060608">
        <!-- head + hair + neck + shoulder profile -->
        <path d="M1000 122 C982 124 966 138 958 158 C953 168 953 174 952 180 L944 190 L953 197 C955 200 955 203 953 206 L953 210 C954 214 956 220 961 223 C972 230 984 234 994 240 C999 248 1001 258 1001 268 C1000 282 986 296 970 306 C962 314 958 326 958 336 L1078 336 C1082 300 1082 254 1075 212 C1071 190 1067 174 1060 160 C1054 142 1044 130 1028 125 C1018 121 1008 121 1000 122 Z"/>
        <!-- long bunny ears -->
        <path d="M1004 126 C996 92 994 60 997 34 C998 27 1004 27 1007 35 C1014 64 1017 96 1018 124 Z"/>
        <path d="M1024 124 C1026 96 1030 64 1037 35 C1040 27 1046 27 1047 34 C1049 60 1046 92 1038 126 Z"/>
      </g>
      <!-- cyan rim traces the face profile (forehead, nose, lips, chin) -->
      <path d="M1000 122 C982 124 966 138 958 158 C953 168 953 174 952 180 L944 190 L953 197 C955 200 955 203 953 206 L953 210 C954 214 956 220 961 223 C972 230 984 234 994 240" stroke="#7df0ff" stroke-opacity="0.78" stroke-width="2.4" fill="none" stroke-linejoin="round"/>
      <path d="M994 240 C999 248 1001 258 1001 268 C1000 282 986 296 970 306 C962 314 958 326 958 336" stroke="#67e8f9" stroke-opacity="0.42" stroke-width="2.1" fill="none"/>
      <path d="M997 34 C994 60 996 92 1004 126" stroke="#7df0ff" stroke-opacity="0.6" stroke-width="2.2" fill="none"/>
      <!-- faint warm rim along the back hair + far ear -->
      <path d="M1078 336 C1082 300 1082 254 1075 212 C1071 190 1067 174 1060 160" stroke="#fb9a9a" stroke-opacity="0.22" stroke-width="2" fill="none"/>
      <path d="M1037 35 C1030 64 1026 96 1024 124" stroke="#fb9a9a" stroke-opacity="0.2" stroke-width="2" fill="none"/>
    </g>

    <!-- CRT scanlines -->
    <rect width="1200" height="380" fill="url(#scan)"/>

    <!-- title with RGB-split glitch -->
    <g font-family="ui-monospace, 'SF Mono', SFMono-Regular, Menlo, Consolas, monospace" font-weight="700" font-size="58" letter-spacing="-1">
      <text x="67" y="208" fill="#22d3ee" fill-opacity="0.6">i like computers<animate attributeName="x" values="67;67;71;64;67;67" keyTimes="0;0.86;0.89;0.92;0.95;1" dur="6s" repeatCount="indefinite"/></text>
      <text x="73" y="208" fill="#ef4444" fill-opacity="0.6">i like computers<animate attributeName="x" values="73;73;69;76;73;73" keyTimes="0;0.86;0.89;0.92;0.95;1" dur="6s" repeatCount="indefinite"/></text>
      <text x="70" y="208" fill="#f5f3f4">i like computers</text>
    </g>

    <!-- (top captions removed) -->

    <!-- powerline status strip (Lain palette) -->
    <g font-family="ui-monospace, 'SF Mono', Menlo, Consolas, monospace" font-size="16" font-weight="700">
      <rect x="0" y="338" width="1200" height="42" fill="#050507"/>
      <rect x="40" y="345" width="200" height="28" fill="#1f2937"/>
      <rect x="240" y="345" width="96" height="28" fill="#7f1d1d"/>
      <rect x="336" y="345" width="208" height="28" fill="#111827"/>
      <rect x="544" y="345" width="150" height="28" fill="#0e7490"/>
      <path d="M240 345 L258 359 L240 373 Z" fill="#1f2937"/>
      <path d="M336 345 L354 359 L336 373 Z" fill="#7f1d1d"/>
      <path d="M544 345 L562 359 L544 373 Z" fill="#111827"/>
      <path d="M694 345 L712 359 L694 373 Z" fill="#0e7490"/>
      <text x="58" y="365" fill="#cbd5e1">~/new1direction</text>
      <text x="266" y="365" fill="#fecaca">wired</text>
      <text x="360" y="365" fill="#e2e8f0">rust &#183; python &#183; ts</text>
      <text x="568" y="365" fill="#cffafe">&#10003; verifiable</text>
    </g>
  </g>
  <rect x="0.5" y="0.5" width="1199" height="379" rx="14" fill="none" stroke="#000000" stroke-opacity="0.6"/>
</svg>
